<svg xmlns:xlink="http://www.w3.org/1999/xlink" xmlns="http://www.w3.org/2000/svg" width="429.00000000000006" height="63.56649515100563" viewBox="0 0 369.72477064220186 54.78346815905406" class="looka-1j8o68f">
  <defs id="SvgjsDefs6261"></defs>
  <g id="SvgjsG6262" featurekey="HKaMnE-0" transform="matrix(0.19916350134675637,0,0,0.19916350134675637,-39.57657690616153,-32.17306212701065)" fill="#000000">
    <path xmlns="http://www.w3.org/2000/svg" d="M428.65,377.365c-3.249,1.161-6.26,4.992-5.497,8.589c0.728,3.433,4.698,3.576,7.142,1.924  c2.323-1.57,4.379-4.752,3.92-7.661c-0.526-3.334-3.919-3.439-6.456-2.534c0.557-0.199,1.114-0.398,1.671-0.597  C429.169,377.18,428.91,377.272,428.65,377.365C426.291,378.208,431.432,376.371,428.65,377.365z"></path>
    <g xmlns="http://www.w3.org/2000/svg">
      <path d="M601.729,275.674c-0.001-0.014-0.121-1.063-0.12-1.049c-0.44-3.664-2.567-6.929-5.66-8.997l-146.731-97.557   c-6.234-3.968-13.785-5.687-21.073-6.285c-7.478-0.613-15.707-0.173-22.807,2.437l-192.517,70.324   c-5.995,2.192-12.958,6.232-13.889,13.21c0.002-0.028-0.001-0.059,0.002-0.087c-0.064,0.244-0.22,1.169-0.22,1.428l0.015,72.406   c-0.134,4.024,2.235,8.407,5.588,10.631l147.519,98.082c6.096,4.016,13.784,5.687,20.972,6.226   c7.993,0.599,16.188-0.418,23.727-3.171l191.178-69.833c8.814-3.22,13.937-8.563,14.053-14.719l0.01-71.737   C601.774,276.984,601.774,276.196,601.729,275.674C601.728,275.661,601.774,276.196,601.729,275.674z M205.714,246.352   c1.998-3.161,5.783-4.931,9.166-6.168l192.466-70.306c12.469-4.036,29.437-2.61,38.601,3.222l146.546,97.435   c2.942,2.488,4.253,6.219,1.709,9.479c-2.105,2.698-5.414,4.195-8.548,5.34l-191.178,69.833   c-12.288,4.489-27.923,4.327-39.382-2.457l-147.301-97.938C205.32,252.632,203.792,249.393,205.714,246.352   C207.711,243.191,203.792,249.393,205.714,246.352z M595.773,286.778l-0.008,61.887c-0.065,3.434-3.846,6.851-10.112,9.139   l-191.178,69.833c-12.841,4.691-29.021,3.677-39.382-2.457l-147.304-97.94c-1.717-1.485-3.061-3.341-3.061-5.683l-0.012-61.605   l147.119,97.816c6.102,4.02,13.81,5.694,21.006,6.223c7.971,0.586,16.174-0.422,23.693-3.167l191.178-69.833   c1.519-0.555,3.012-1.19,4.445-1.94C593.365,288.418,595.027,287.348,595.773,286.778z"></path>
      <path d="M 546.991 346.217 L 450.466 381.531 C 447.366 382.664 449.106 387.495 452.23 386.355 L 548.755 351.041 C 551.864 349.903 550.1 345.08 546.991 346.217 Z" style=""></path>
    </g>
    <path xmlns="http://www.w3.org/2000/svg" d="M 564.9 326.699 C 561.651 327.86 558.64 331.691 559.403 335.288 C 560.131 338.721 564.101 338.864 566.545 337.212 C 568.868 335.642 570.924 332.46 570.465 329.551 C 569.939 326.217 566.546 326.112 564.009 327.017 C 564.566 326.818 565.123 326.619 565.68 326.42 C 565.419 326.514 565.16 326.606 564.9 326.699 C 562.541 327.542 567.682 325.705 564.9 326.699 Z"></path>
  </g>
  <g id="SvgjsG6263" featurekey="J3GnXt-0" transform="matrix(1.8123133270738698,0,0,1.8123133270738698,97.64399665002432,0.4672323489641794)" fill="#000000">
    <path d="M1.3 20 l0 -10.46 l1.66 0 l0 1.48 l0.04 0 c0.38 -0.56 1.28 -1.78 3.16 -1.78 s2.48 1.14 2.78 1.7 c0.88 -0.98 1.58 -1.7 3.2 -1.7 c1.12 0 3.24 0.58 3.24 3.52 l0 7.24 l-1.76 0 l0 -6.76 c0 -1.44 -0.44 -2.42 -1.94 -2.42 c-1.48 0 -2.46 1.4 -2.46 2.8 l0 6.38 l-1.76 0 l0 -7.24 c0 -0.88 -0.34 -1.94 -1.64 -1.94 c-1 0 -2.76 0.64 -2.76 3.48 l0 5.7 l-1.76 0 z M22.259 9.54 l0 10.46 l-1.76 0 l0 -10.46 l1.76 0 z M22.259 7.640000000000001 l-1.76 0 l0 -2 l1.76 0 l0 2 z M35.918 12.879999999999999 l0 7.12 l-1.76 0 l0 -6.44 c0 -1.82 -0.52 -2.74 -2.24 -2.74 c-1 0 -2.76 0.64 -2.76 3.48 l0 5.7 l-1.76 0 l0 -10.46 l1.66 0 l0 1.48 l0.04 0 c0.38 -0.56 1.36 -1.78 3.16 -1.78 c1.62 0 3.66 0.66 3.66 3.64 z M42.817 9.54 l0 10.46 l-1.76 0 l0 -10.46 l1.76 0 z M42.817 7.640000000000001 l-1.76 0 l0 -2 l1.76 0 l0 2 z M50.316 7.300000000000001 l0 4.98 l3.86 0 c1.74 0 2.92 -0.64 2.92 -2.58 c0 -1.82 -1.24 -2.4 -2.84 -2.4 l-3.94 0 z M50.316 13.940000000000001 l0 6.06 l-1.94 0 l0 -14.36 l6.46 0 c2.66 0 4.26 1.72 4.26 4.04 c0 2 -1.14 4.26 -4.26 4.26 l-4.52 0 z M75.975 9.96 l-1.88 0 c-0.54 -2.52 -2.64 -2.98 -4.02 -2.98 c-2.6 0 -4.7 1.92 -4.7 5.7 c0 3.38 1.2 5.98 4.76 5.98 c1.26 0 3.44 -0.6 4.1 -3.94 l1.88 0 c-0.8 5.42 -5.2 5.66 -6.28 5.66 c-3.26 0 -6.46 -2.12 -6.46 -7.64 c0 -4.42 2.52 -7.48 6.7 -7.48 c3.7 0 5.62 2.3 5.9 4.7 z M82.054 14.74 c0 2.3 0.9 4.04 2.82 4.04 c1.12 0 2.86 -0.74 2.86 -3.52 c0 -1.7 -0.28 -4.44 -2.82 -4.44 c-2.72 0 -2.86 2.58 -2.86 3.92 z M89.414 9.54 l0 9.6 c0 1.5 -0.02 5.26 -4.86 5.26 c-1.24 0 -3.66 -0.34 -4 -3.12 l1.76 0 c0.32 1.66 1.94 1.66 2.36 1.66 c3.04 0 2.98 -2.44 2.98 -3.68 l0 -0.44 l-0.04 0 l0 0.08 c-0.46 0.74 -1.38 1.4 -2.78 1.4 c-3.56 0 -4.6 -3.34 -4.6 -5.84 c0 -2.94 1.58 -5.22 4.36 -5.22 c1.9 0 2.7 1.18 3.12 1.78 l0.04 0 l0 -1.48 l1.66 0 z M102.833 20 l-1.66 0 l0 -1.52 l-0.04 -0.04 c-0.74 1.22 -1.64 1.86 -3.32 1.86 c-1.54 0 -3.4 -0.74 -3.4 -3.24 l0 -7.52 l1.76 0 l0 6.94 c0 1.72 0.88 2.3 2.02 2.3 c2.22 0 2.88 -1.96 2.88 -3.48 l0 -5.76 l1.76 0 l0 10.46 z M109.77199999999999 9.54 l0 10.46 l-1.76 0 l0 -10.46 l1.76 0 z M109.77199999999999 7.640000000000001 l-1.76 0 l0 -2 l1.76 0 l0 2 z M123.591 5.640000000000001 l0 14.36 l-1.66 0 l0 -1.44 l-0.04 0 c-0.76 1.42 -1.96 1.74 -2.98 1.74 c-3.56 0 -4.6 -3.34 -4.6 -5.84 c0 -2.94 1.58 -5.22 4.36 -5.22 c1.9 0 2.7 1.18 3.12 1.78 l0.04 -0.14 l0 -5.24 l1.76 0 z M116.13099999999999 14.74 c0 2.3 0.9 4.04 2.82 4.04 c1.12 0 2.86 -0.74 2.86 -3.52 c0 -1.7 -0.28 -4.44 -2.82 -4.44 c-2.72 0 -2.86 2.58 -2.86 3.92 z M135.64999999999998 16.72 l1.76 0 c-0.06 0.5 -0.54 1.98 -1.86 2.86 c-0.48 0.32 -1.16 0.72 -2.84 0.72 c-2.94 0 -4.68 -2.22 -4.68 -5.24 c0 -3.24 1.56 -5.82 5.02 -5.82 c3.02 0 4.5 2.4 4.5 6.1 l-7.64 0 c0 2.18 1.02 3.44 3.04 3.44 c1.66 0 2.64 -1.28 2.7 -2.06 z M129.91 13.940000000000001 l5.82 0 c-0.1 -1.62 -0.78 -3.12 -2.92 -3.12 c-1.62 0 -2.9 1.5 -2.9 3.12 z M149.789 12.52 l-1.7 0 c-0.02 -0.66 -0.26 -1.76 -2.48 -1.76 c-0.54 0 -2.08 0.18 -2.08 1.48 c0 0.86 0.54 1.06 1.9 1.4 l1.76 0.44 c2.18 0.54 2.94 1.34 2.94 2.76 c0 2.16 -1.78 3.46 -4.14 3.46 c-4.14 0 -4.44 -2.4 -4.5 -3.66 l1.7 0 c0.06 0.82 0.3 2.14 2.78 2.14 c1.26 0 2.4 -0.5 2.4 -1.66 c0 -0.84 -0.58 -1.12 -2.08 -1.5 l-2.04 -0.5 c-1.46 -0.36 -2.42 -1.1 -2.42 -2.54 c0 -2.3 1.9 -3.34 3.96 -3.34 c3.74 0 4 2.76 4 3.28 z"></path>
  </g>
</svg>